#Comment line ignore any data following # character 
#Hierarchical Translation and Rotation (.htr) file 
[Header]	
#Header keywords are followed by a single value 
FileType HTR		#Single word string
DataType HTRS		#Translation followed by rotation and scale data
FileVersion 1		#integer
NumSegments 84		#integer
NumFrames 2		#integer
DataFrameRate 30		#integer, data frame rate in this file
EulerRotationOrder ZYX
CalibrationUnits mm
RotationUnits Degrees
GlobalAxisofGravity Y
BoneLengthAxis Y
ScaleFactor 1.00
[SegmentNames&Hierarchy]
#CHILD	PARENT
MASTER GLOBAL
root MASTER
chest root
L_mid_tent01 root
R_mid_tent01 root
spine01 root
Bip01_Neck chest
L_humerus chest
R_humerus chest
weapon_bone chest
Bip01_Head Bip01_Neck
eye_left_bone Bip01_Head
eye_right_bone Bip01_Head
L_forearm L_humerus
L_front_hand L_forearm
L_weapon_bone L_forearm
L_front_hand01_01 L_front_hand
L_front_hand02_01 L_front_hand
L_front_hand03_01 L_front_hand
L_front_hand01_02 L_front_hand01_01
L_front_hand02_02 L_front_hand02_01
L_front_hand03_02 L_front_hand03_01
R_forearm R_humerus
R_front_hand R_forearm
R_weapon_bone R_forearm
R_front_hand01_01 R_front_hand
R_front_hand02_01 R_front_hand
R_front_hand03_01 R_front_hand
R_front_hand01_02 R_front_hand01_01
R_front_hand02_02 R_front_hand02_01
R_front_hand03_02 R_front_hand03_01
null_rope01_connect L_mid_tent01
Rope1_Seg01 null_rope01_connect
Rope1_Seg02 Rope1_Seg01
Rope1_Seg03 Rope1_Seg02
Rope1_Seg04 Rope1_Seg03
Rope1_Seg05 Rope1_Seg04
Rope1_Seg06 Rope1_Seg05
Rope1_Seg07 Rope1_Seg06
Rope1_Seg09 Rope1_Seg07
L_mid_hand01 Rope1_Seg09
L_mid_hand02 Rope1_Seg09
L_mid_hand03 Rope1_Seg09
null_rope02_connect R_mid_tent01
Rope2_Seg01 null_rope02_connect
Rope2_Seg02 Rope2_Seg01
Rope2_Seg03 Rope2_Seg02
Rope2_Seg04 Rope2_Seg03
Rope2_Seg05 Rope2_Seg04
Rope2_Seg06 Rope2_Seg05
Rope2_Seg07 Rope2_Seg06
Rope2_Seg09 Rope2_Seg07
R_mid_hand01 Rope2_Seg09
R_mid_hand02 Rope2_Seg09
R_mid_hand03 Rope2_Seg09
spine02 spine01
spine03 spine02
pelvis spine03
null_rope03_connect pelvis
null_rope04_connect pelvis
Rope3_Seg01 null_rope03_connect
Rope3_Seg02 Rope3_Seg01
Rope3_Seg03 Rope3_Seg02
Rope3_Seg04 Rope3_Seg03
Rope3_Seg05 Rope3_Seg04
Rope3_Seg06 Rope3_Seg05
Rope3_Seg07 Rope3_Seg06
Rope3_Seg08 Rope3_Seg07
Rope3_Seg09 Rope3_Seg08
R_rear_hand01 Rope3_Seg09
R_rear_hand02 Rope3_Seg09
R_rear_hand03 Rope3_Seg09
Rope4_Seg01 null_rope04_connect
Rope4_Seg02 Rope4_Seg01
Rope4_Seg03 Rope4_Seg02
Rope4_Seg04 Rope4_Seg03
Rope4_Seg05 Rope4_Seg04
Rope4_Seg06 Rope4_Seg05
Rope4_Seg07 Rope4_Seg06
Rope4_Seg08 Rope4_Seg07
Rope4_Seg09 Rope4_Seg08
L_rear_hand01 Rope4_Seg09
L_rear_hand02 Rope4_Seg09
L_rear_hand03 Rope4_Seg09
[BasePosition]
#SegmentName Tx, Ty, Tz, Rx, Ry, Rz, BoneLength
MASTER 0.000000 0.000000 0.000000 -90.000000 0.000000 0.000000 10.000000 
root 0.000000 0.000000 0.000000 0.000000 0.000000 0.000000 10.000000 
chest 0.000000 0.000000 0.000000 0.000000 0.000000 0.000000 10.000000 
L_mid_tent01 0.000000 0.000000 0.000000 0.000000 0.000000 0.000000 10.000000 
R_mid_tent01 0.000000 0.000000 0.000000 0.000000 0.000000 0.000000 10.000000 
spine01 0.000000 0.000000 0.000000 0.000000 0.000000 0.000000 10.000000 
Bip01_Neck 0.000000 0.000000 0.000000 0.000000 0.000000 0.000000 10.000000 
L_humerus 0.000000 0.000000 0.000000 0.000000 0.000000 0.000000 10.000000 
R_humerus 0.000000 0.000000 0.000000 0.000000 0.000000 0.000000 10.000000 
weapon_bone 0.000000 0.000000 0.000000 0.000000 0.000000 0.000000 10.000000 
Bip01_Head 0.000000 0.000000 0.000000 0.000000 0.000000 0.000000 10.000000 
eye_left_bone 0.000000 0.000000 0.000000 0.000000 0.000000 0.000000 10.000000 
eye_right_bone 0.000000 0.000000 0.000000 0.000000 0.000000 0.000000 10.000000 
L_forearm 0.000000 0.000000 0.000000 0.000000 0.000000 0.000000 10.000000 
L_front_hand 0.000000 0.000000 0.000000 0.000000 0.000000 0.000000 10.000000 
L_weapon_bone 0.000000 0.000000 0.000000 0.000000 0.000000 0.000000 10.000000 
L_front_hand01_01 0.000000 0.000000 0.000000 0.000000 0.000000 0.000000 10.000000 
L_front_hand02_01 0.000000 0.000000 0.000000 0.000000 0.000000 0.000000 10.000000 
L_front_hand03_01 0.000000 0.000000 0.000000 0.000000 0.000000 0.000000 10.000000 
L_front_hand01_02 0.000000 0.000000 0.000000 0.000000 0.000000 0.000000 10.000000 
L_front_hand02_02 0.000000 0.000000 0.000000 0.000000 0.000000 0.000000 10.000000 
L_front_hand03_02 0.000000 0.000000 0.000000 0.000000 0.000000 0.000000 10.000000 
R_forearm 0.000000 0.000000 0.000000 0.000000 0.000000 0.000000 10.000000 
R_front_hand 0.000000 0.000000 0.000000 0.000000 0.000000 0.000000 10.000000 
R_weapon_bone 0.000000 0.000000 0.000000 0.000000 0.000000 0.000000 10.000000 
R_front_hand01_01 0.000000 0.000000 0.000000 0.000000 0.000000 0.000000 10.000000 
R_front_hand02_01 0.000000 0.000000 0.000000 0.000000 0.000000 0.000000 10.000000 
R_front_hand03_01 0.000000 0.000000 0.000000 0.000000 0.000000 0.000000 10.000000 
R_front_hand01_02 0.000000 0.000000 0.000000 0.000000 0.000000 0.000000 10.000000 
R_front_hand02_02 0.000000 0.000000 0.000000 0.000000 0.000000 0.000000 10.000000 
R_front_hand03_02 0.000000 0.000000 0.000000 0.000000 0.000000 0.000000 10.000000 
null_rope01_connect 0.000000 0.000000 0.000000 0.000000 0.000000 0.000000 10.000000 
Rope1_Seg01 0.000000 0.000000 0.000000 0.000000 0.000000 0.000000 10.000000 
Rope1_Seg02 0.000000 0.000000 0.000000 0.000000 0.000000 0.000000 10.000000 
Rope1_Seg03 0.000000 0.000000 0.000000 0.000000 0.000000 0.000000 10.000000 
Rope1_Seg04 0.000000 0.000000 0.000000 0.000000 0.000000 0.000000 10.000000 
Rope1_Seg05 0.000000 0.000000 0.000000 0.000000 0.000000 0.000000 10.000000 
Rope1_Seg06 0.000000 0.000000 0.000000 0.000000 0.000000 0.000000 10.000000 
Rope1_Seg07 0.000000 0.000000 0.000000 0.000000 0.000000 0.000000 10.000000 
Rope1_Seg09 0.000000 0.000000 0.000000 0.000000 0.000000 0.000000 10.000000 
L_mid_hand01 0.000000 0.000000 0.000000 0.000000 0.000000 0.000000 10.000000 
L_mid_hand02 0.000000 0.000000 0.000000 0.000000 0.000000 0.000000 10.000000 
L_mid_hand03 0.000000 0.000000 0.000000 0.000000 0.000000 0.000000 10.000000 
null_rope02_connect 0.000000 0.000000 0.000000 0.000000 0.000000 0.000000 10.000000 
Rope2_Seg01 0.000000 0.000000 0.000000 0.000000 0.000000 0.000000 10.000000 
Rope2_Seg02 0.000000 0.000000 0.000000 0.000000 0.000000 0.000000 10.000000 
Rope2_Seg03 0.000000 0.000000 0.000000 0.000000 0.000000 0.000000 10.000000 
Rope2_Seg04 0.000000 0.000000 0.000000 0.000000 0.000000 0.000000 10.000000 
Rope2_Seg05 0.000000 0.000000 0.000000 0.000000 0.000000 0.000000 10.000000 
Rope2_Seg06 0.000000 0.000000 0.000000 0.000000 0.000000 0.000000 10.000000 
Rope2_Seg07 0.000000 0.000000 0.000000 0.000000 0.000000 0.000000 10.000000 
Rope2_Seg09 0.000000 0.000000 0.000000 0.000000 0.000000 0.000000 10.000000 
R_mid_hand01 0.000000 0.000000 0.000000 0.000000 0.000000 0.000000 10.000000 
R_mid_hand02 0.000000 0.000000 0.000000 0.000000 0.000000 0.000000 10.000000 
R_mid_hand03 0.000000 0.000000 0.000000 0.000000 0.000000 0.000000 10.000000 
spine02 0.000000 0.000000 0.000000 0.000000 0.000000 0.000000 10.000000 
spine03 0.000000 0.000000 0.000000 0.000000 0.000000 0.000000 10.000000 
pelvis 0.000000 0.000000 0.000000 0.000000 0.000000 0.000000 10.000000 
null_rope03_connect 0.000000 0.000000 0.000000 0.000000 0.000000 0.000000 10.000000 
null_rope04_connect 0.000000 0.000000 0.000000 0.000000 0.000000 0.000000 10.000000 
Rope3_Seg01 0.000000 0.000000 0.000000 0.000000 0.000000 0.000000 10.000000 
Rope3_Seg02 0.000000 0.000000 0.000000 0.000000 0.000000 0.000000 10.000000 
Rope3_Seg03 0.000000 0.000000 0.000000 0.000000 0.000000 0.000000 10.000000 
Rope3_Seg04 0.000000 0.000000 0.000000 0.000000 0.000000 0.000000 10.000000 
Rope3_Seg05 0.000000 0.000000 0.000000 0.000000 0.000000 0.000000 10.000000 
Rope3_Seg06 0.000000 0.000000 0.000000 0.000000 0.000000 0.000000 10.000000 
Rope3_Seg07 0.000000 0.000000 0.000000 0.000000 0.000000 0.000000 10.000000 
Rope3_Seg08 0.000000 0.000000 0.000000 0.000000 0.000000 0.000000 10.000000 
Rope3_Seg09 0.000000 0.000000 0.000000 0.000000 0.000000 0.000000 10.000000 
R_rear_hand01 0.000000 0.000000 0.000000 0.000000 0.000000 0.000000 10.000000 
R_rear_hand02 0.000000 0.000000 0.000000 0.000000 0.000000 0.000000 10.000000 
R_rear_hand03 0.000000 0.000000 0.000000 0.000000 0.000000 0.000000 10.000000 
Rope4_Seg01 0.000000 0.000000 0.000000 0.000000 0.000000 0.000000 10.000000 
Rope4_Seg02 0.000000 0.000000 0.000000 0.000000 0.000000 0.000000 10.000000 
Rope4_Seg03 0.000000 0.000000 0.000000 0.000000 0.000000 0.000000 10.000000 
Rope4_Seg04 0.000000 0.000000 0.000000 0.000000 0.000000 0.000000 10.000000 
Rope4_Seg05 0.000000 0.000000 0.000000 0.000000 0.000000 0.000000 10.000000 
Rope4_Seg06 0.000000 0.000000 0.000000 0.000000 0.000000 0.000000 10.000000 
Rope4_Seg07 0.000000 0.000000 0.000000 0.000000 0.000000 0.000000 10.000000 
Rope4_Seg08 0.000000 0.000000 0.000000 0.000000 0.000000 0.000000 10.000000 
Rope4_Seg09 0.000000 0.000000 0.000000 0.000000 0.000000 0.000000 10.000000 
L_rear_hand01 0.000000 0.000000 0.000000 0.000000 0.000000 0.000000 10.000000 
L_rear_hand02 0.000000 0.000000 0.000000 0.000000 0.000000 0.000000 10.000000 
L_rear_hand03 0.000000 0.000000 0.000000 0.000000 0.000000 0.000000 10.000000 
#Beginning of Data. Separated by tabs
#Fr	Tx	Ty	Tz	Rx	Ry	Rz	SF
[MASTER]
13 0.000000 0.000000 0.000000 0.001660 0.001660 0.001660 0.000000
14 0.000000 0.000000 0.000000 0.001660 0.001660 0.001660 0.000000
[root]
13 -37.882362 -51.398724 3110.375244 -75.971878 -17.243458 -96.678001 3111.030518
14 -37.107449 -51.812763 2748.275146 -68.926598 -12.464503 -99.233612 2749.013916
[chest]
13 -84.512650 -34.090519 0.000000 -0.617201 -2.324355 149.859772 91.129311
14 -84.512650 -34.090519 0.000000 0.684239 -1.006844 148.717911 91.129311
[L_mid_tent01]
13 27.299200 22.178839 -249.918503 2.095418 -2.463918 78.687622 252.381470
14 27.299194 22.178854 -249.918518 1.910069 5.793853 78.854721 252.381485
[R_mid_tent01]
13 23.228794 24.509907 226.238495 165.777695 -0.481410 72.672554 228.744751
14 23.228794 24.509907 226.238495 165.244659 -7.740590 75.472168 228.744751
[spine01]
13 -0.361383 -0.195265 0.000000 0.002062 0.001122 32.879829 0.410763
14 -0.361383 -0.195265 0.000000 0.002062 0.001122 32.879829 0.410763
[Bip01_Neck]
13 165.484543 71.581718 0.000119 176.643677 -1.657966 43.431908 180.302734
14 165.484543 71.581718 0.000119 176.643677 -1.657967 43.431911 180.302734
[L_humerus]
13 -13.983130 -135.272980 -120.471481 147.211334 52.956738 -78.673569 181.680161
14 -13.983130 -135.272980 -120.471481 152.560043 44.522491 -72.766136 181.680161
[R_humerus]
13 -13.983309 -135.273102 125.287651 -174.434647 -7.640057 -92.929092 184.909012
14 -13.983309 -135.273102 125.287651 -175.073441 -7.424824 -91.204430 184.909012
[weapon_bone]
13 235.964890 -300.705902 0.000000 0.000000 -89.951546 -128.212341 382.234833
14 235.964890 -300.705902 0.000000 0.000000 -89.951546 -128.212341 382.234833
[Bip01_Head]
13 213.584000 185.327148 16.795048 31.812307 0.614876 -43.899479 283.277863
14 213.630157 185.198517 18.453907 31.706104 1.114095 -43.897293 283.331726
[eye_left_bone]
13 -24.626970 125.451866 -64.772606 0.000000 -90.000000 -99.840431 143.318359
14 -24.626970 125.451866 -64.772606 0.000000 -90.000000 -99.840431 143.318359
[eye_right_bone]
13 -24.626970 125.451866 64.327362 0.000000 -89.972023 80.156380 143.117676
14 -24.626970 125.451866 64.327362 0.000000 -89.965736 80.156380 143.117676
[L_forearm]
13 322.776093 0.000000 -0.000119 0.000130 -0.002344 -96.359467 322.776093
14 322.776093 0.000000 -0.000119 0.000124 -0.002344 -96.073784 322.776093
[L_front_hand]
13 241.149185 -0.042021 -3.300071 -178.610138 -1.791695 -29.182684 241.171753
14 241.149185 -0.042021 -3.300071 -178.623703 -1.802970 -28.850498 241.171753
[L_weapon_bone]
13 156.183838 0.000000 0.000000 0.000014 0.000007 0.000001 156.183838
14 156.183838 0.000000 0.000000 0.000014 0.000007 0.000001 156.183838
[L_front_hand01_01]
13 86.095154 20.947098 -0.655860 -0.366594 -0.477154 75.385574 88.609184
14 86.095154 20.947098 -0.655860 -0.366594 -0.477154 75.385574 88.609184
[L_front_hand02_01]
13 86.935165 -11.437475 24.513514 154.399796 -59.883835 -61.369587 91.046425
14 86.935165 -11.437475 24.513514 154.399796 -59.883835 -61.369587 91.046425
[L_front_hand03_01]
13 86.637497 -14.123976 -20.424902 -153.913849 58.118130 -62.702866 90.126129
14 86.637497 -14.123976 -20.424902 -153.913849 58.118122 -62.702866 90.126129
[L_front_hand01_02]
13 71.020905 -0.000179 0.000030 0.000331 -0.002324 -106.206635 71.020905
14 71.020905 -0.000179 0.000030 0.000332 -0.002324 -106.240639 71.020905
[L_front_hand02_02]
13 71.020927 -0.000119 0.000060 0.000331 -0.002324 -106.206635 71.020927
14 71.020927 -0.000119 0.000060 0.000332 -0.002324 -106.240639 71.020927
[L_front_hand03_02]
13 71.020905 -0.000060 0.000060 0.000331 -0.002324 -106.206635 71.020905
14 71.020905 -0.000060 0.000060 0.000332 -0.002324 -106.240639 71.020905
[R_forearm]
13 322.776428 -0.000060 0.000030 0.209463 0.013251 -94.702690 322.776428
14 322.776428 -0.000060 0.000030 0.209491 0.012796 -94.453636 322.776428
[R_front_hand]
13 238.847015 -0.006795 2.210259 -2.245837 -10.733613 -28.393438 238.857239
14 238.847015 -0.006795 2.210259 -2.321091 -10.715161 -28.002304 238.857239
[R_weapon_bone]
13 155.664093 0.002503 -0.000030 0.003487 0.001180 -90.988930 155.664078
14 155.664093 0.002503 -0.000030 0.003487 0.001180 -90.988930 155.664078
[R_front_hand01_01]
13 87.624611 14.231146 22.918642 -154.633484 -59.950619 61.746037 91.683487
14 87.624611 14.231146 22.918642 -154.633514 -59.950634 61.746063 91.683487
[R_front_hand02_01]
13 89.356956 14.367283 -19.491137 154.602661 58.302849 63.744389 92.579636
14 89.356956 14.367283 -19.491137 154.602661 58.302849 63.744389 92.579636
[R_front_hand03_01]
13 87.286232 -22.307278 -0.143439 0.162155 -0.423168 -75.767921 90.091743
14 87.286232 -22.307278 -0.143439 0.162155 -0.423168 -75.767921 90.091743
[R_front_hand01_02]
13 71.020905 0.000060 0.000119 0.002323 -0.000334 106.381714 71.020905
14 71.020905 0.000060 0.000119 0.002323 -0.000334 106.381714 71.020905
[R_front_hand02_02]
13 71.020844 -0.000030 -0.000119 0.002323 -0.000334 106.381714 71.020836
14 71.020844 -0.000030 -0.000119 0.002323 -0.000334 106.381714 71.020836
[R_front_hand03_02]
13 71.020905 0.000000 0.000030 0.002323 -0.000334 106.381714 71.020905
14 71.020905 0.000000 0.000030 0.002323 -0.000334 106.381714 71.020905
[null_rope01_connect]
13 328.732483 0.000000 -0.000238 -10.327979 -73.166199 39.619259 328.732483
14 328.732483 0.000000 -0.000238 -27.996733 -71.782066 52.452682 328.732483
[Rope1_Seg01]
13 -0.000038 -0.000114 0.000103 129.133240 34.159649 174.107819 0.000159
14 -0.000038 -0.000114 0.000104 129.950928 46.710751 163.436874 0.000159
[Rope1_Seg02]
13 139.999863 -0.000179 0.000000 4.003586 -7.382557 -1.709745 139.999863
14 139.999863 -0.000179 0.000000 3.799468 -11.357333 -0.798953 139.999863
[Rope1_Seg03]
13 139.999924 0.000060 -0.000060 4.987248 -12.125394 -1.967083 139.999924
14 139.999924 0.000060 -0.000060 3.000069 -16.798008 -0.091303 139.999924
[Rope1_Seg04]
13 139.999924 -0.000060 -0.000119 5.070591 -21.437288 -2.329154 139.999924
14 139.999924 -0.000060 -0.000119 0.021139 -21.821943 0.395524 139.999924
[Rope1_Seg05]
13 139.999832 0.000119 -0.000060 0.021929 -26.297411 -0.521453 139.999832
14 139.999832 0.000119 -0.000060 -2.965213 -16.671543 1.346277 139.999832
[Rope1_Seg06]
13 139.999954 0.000119 -0.000060 -2.211577 -12.408643 2.779954 139.999954
14 139.999954 0.000119 -0.000060 -2.868118 -9.935203 1.825237 139.999954
[Rope1_Seg07]
13 139.999985 0.000060 0.000000 -1.267558 -6.056256 2.733617 139.999985
14 139.999985 0.000060 0.000000 -2.914191 -7.320063 0.797871 139.999985
[Rope1_Seg09]
13 121.602913 0.000119 -0.000089 -89.793175 -1.359789 0.847147 121.602913
14 121.602913 0.000119 -0.000089 -89.793175 -1.359789 0.847147 121.602913
[L_mid_hand01]
13 103.859421 1.038730 8.195221 130.544342 -67.584518 -38.866936 104.187431
14 103.859421 1.038730 8.195221 130.544373 -67.584534 -38.866943 104.187431
[L_mid_hand02]
13 105.572853 -4.139662 -10.864139 -168.923172 43.409309 -73.498894 106.211075
14 105.572853 -4.139662 -10.864139 -168.923172 43.409309 -73.498886 106.211075
[L_mid_hand03]
13 104.641464 17.579376 -3.913581 -6.012625 17.808172 74.893669 106.179977
14 104.641464 17.579376 -3.913581 -6.012627 17.808174 74.893669 106.179977
[null_rope02_connect]
13 328.732849 0.000179 -0.000119 -119.708755 79.112160 23.654022 328.732849
14 328.732849 0.000179 -0.000119 -147.147781 66.659470 0.175030 328.732849
[Rope2_Seg01]
13 0.000003 0.000105 0.000000 -50.782059 11.687784 4.571854 0.000105
14 0.000009 0.000105 0.000000 -45.194134 6.052679 2.201602 0.000106
[Rope2_Seg02]
13 139.999741 -0.000060 -0.000119 -6.507038 2.214772 6.712191 139.999756
14 139.999741 -0.000060 -0.000119 -7.300766 2.248916 7.576622 139.999756
[Rope2_Seg03]
13 140.000107 0.000030 0.000000 -8.365856 2.028231 9.854786 140.000107
14 140.000107 0.000030 0.000000 -8.023521 1.568250 9.616634 140.000107
[Rope2_Seg04]
13 139.999802 0.000000 -0.000060 -9.652222 1.639039 13.761162 139.999802
14 139.999802 0.000000 -0.000060 -6.319450 0.666705 8.790440 139.999802
[Rope2_Seg05]
13 139.999985 -0.000060 0.000119 -8.402406 -2.454186 17.243355 139.999985
14 139.999985 -0.000060 0.000119 -8.193572 -2.077299 15.455321 139.999985
[Rope2_Seg06]
13 139.999893 -0.000030 -0.000119 -4.480781 -7.963056 15.825827 139.999893
14 139.999893 -0.000030 -0.000119 -6.843583 -6.789379 21.153275 139.999893
[Rope2_Seg07]
13 139.999893 0.000060 -0.000060 -1.283061 -6.030102 10.852663 139.999893
14 139.999893 0.000060 -0.000060 -1.647756 -5.332331 12.586098 139.999893
[Rope2_Seg09]
13 121.338966 0.000089 -0.000060 33.793236 -1.359788 -0.847141 121.338966
14 121.338966 0.000089 -0.000060 33.793236 -1.359788 -0.847141 121.338966
[R_mid_hand01]
13 104.680779 11.144459 -10.335981 -16.212063 45.237240 70.462845 105.778534
14 104.680779 11.144459 -10.335981 -16.212063 45.237247 70.462852 105.778534
[R_mid_hand02]
13 104.070427 2.443552 8.231699 49.067383 -67.749779 39.286449 104.424065
14 104.070427 2.443552 8.231699 49.067368 -67.749771 39.286453 104.424065
[R_mid_hand03]
13 106.028137 -11.221827 -5.996406 -177.101105 15.551026 -76.585571 106.788818
14 106.028137 -11.221827 -5.996406 -177.101105 15.551026 -76.585571 106.788818
[spine02]
13 129.756927 0.001550 0.000119 -1.168261 -3.981431 8.865037 129.756927
14 129.756927 0.001550 0.000119 -1.160328 -3.968075 8.740493 129.756927
[spine03]
13 78.613861 0.082976 -4.898901 0.943792 4.342390 2.910877 78.766396
14 78.613869 0.082897 -4.898907 0.950735 4.306996 2.987553 78.766411
[pelvis]
13 169.435242 0.051022 0.000000 0.030585 -0.119230 -13.372171 169.435257
14 169.435242 0.051022 0.000000 0.027203 -0.134587 -13.202880 169.435257
[null_rope03_connect]
13 -1.257226 -2.466202 137.391083 -10.882953 -76.887154 87.693840 137.418976
14 -1.257226 -2.466202 137.391083 -12.117570 -69.458282 84.919739 137.418976
[null_rope04_connect]
13 -1.259640 -2.480268 -137.844437 -10.882953 -76.887154 87.693840 137.872513
14 -1.259640 -2.480268 -137.844437 -12.117570 -69.458282 84.919739 137.872513
[Rope3_Seg01]
13 -0.000012 -0.000007 0.000179 -139.788620 -41.544071 -69.454460 0.000179
14 -0.000013 -0.000004 0.000168 -138.032837 -45.679047 -73.815094 0.000169
[Rope3_Seg02]
13 139.999924 -0.000119 0.000060 0.434750 -3.403492 -3.910955 139.999924
14 139.999924 -0.000119 0.000060 0.726272 -4.238707 -3.257453 139.999924
[Rope3_Seg03]
13 139.999924 -0.000119 0.000119 2.550227 -7.640011 -3.113974 139.999924
14 139.999924 -0.000119 0.000119 3.106526 -9.534193 -2.819452 139.999924
[Rope3_Seg04]
13 139.999924 0.000119 0.000000 5.111468 -10.773054 -3.782820 139.999924
14 139.999924 0.000119 0.000000 7.690462 -15.205920 -3.451857 139.999924
[Rope3_Seg05]
13 139.999924 -0.000238 0.000060 -37.067787 21.511047 -31.100061 139.999924
14 139.999924 -0.000238 0.000060 -52.214855 24.157789 -44.084068 139.999924
[Rope3_Seg06]
13 139.999893 -0.000119 -0.000060 -13.357357 16.898331 -6.331079 139.999893
14 139.999893 -0.000119 -0.000060 -14.232520 20.780756 -5.458184 139.999893
[Rope3_Seg07]
13 139.999771 0.000060 -0.000119 -3.686300 7.033306 -1.380080 139.999771
14 139.999771 0.000060 -0.000119 -3.054376 7.720952 -0.546638 139.999771
[Rope3_Seg08]
13 139.999985 -0.000060 0.000000 -1.369762 3.691254 -0.482904 139.999985
14 139.999985 -0.000060 0.000000 -0.925785 3.775508 -0.063494 139.999985
[Rope3_Seg09]
13 90.185997 -0.000179 -0.000060 89.793228 -1.359877 -0.847183 90.185997
14 90.185997 -0.000179 -0.000060 89.793228 -1.359877 -0.847183 90.185997
[R_rear_hand01]
13 103.366196 -6.073594 -10.757982 -177.714203 24.565960 -73.910950 104.101845
14 103.366196 -6.073594 -10.757982 -177.714203 24.565960 -73.910950 104.101845
[R_rear_hand02]
13 100.509819 12.039542 -7.992327 -12.874829 36.868488 72.167213 101.543350
14 100.509819 12.039542 -7.992327 -12.874829 36.868488 72.167213 101.543350
[R_rear_hand03]
13 101.539970 5.215704 5.435467 71.484581 -71.816643 21.513828 101.819031
14 101.539970 5.215704 5.435467 71.484581 -71.816628 21.513813 101.819031
[Rope4_Seg01]
13 0.000015 -0.000038 -0.000421 57.625439 -18.858343 -131.924377 0.000423
14 0.000015 -0.000038 -0.000405 54.598816 -13.464512 -134.720779 0.000407
[Rope4_Seg02]
13 139.999985 0.000060 0.000119 -9.152185 -0.813419 -14.109997 139.999985
14 139.999985 0.000060 0.000119 -11.516390 -0.535088 -16.168592 139.999985
[Rope4_Seg03]
13 139.999924 0.000000 -0.000238 -12.040103 1.795488 -14.334011 139.999924
14 139.999924 0.000000 -0.000238 -12.876659 2.712964 -14.128335 139.999924
[Rope4_Seg04]
13 139.999985 0.000000 0.000119 -6.976821 3.901941 -6.952896 139.999985
14 139.999985 0.000000 0.000119 -6.370566 3.660866 -6.097254 139.999985
[Rope4_Seg05]
13 139.999802 -0.000060 -0.000119 -13.400318 4.809190 -14.397943 139.999802
14 139.999802 -0.000060 -0.000119 -12.325109 5.477085 -12.684228 139.999802
[Rope4_Seg06]
13 139.999924 0.000000 0.000060 -25.859653 13.424514 -27.962738 139.999924
14 139.999924 0.000000 0.000060 -21.195705 13.557444 -22.602377 139.999924
[Rope4_Seg07]
13 139.999802 0.000000 0.000000 -11.254279 15.934196 -13.935561 139.999802
14 139.999802 0.000000 0.000000 -10.072416 14.826198 -12.468944 139.999802
[Rope4_Seg08]
13 139.999924 0.000000 0.000119 -4.231608 7.706485 -4.505607 139.999924
14 139.999924 0.000000 0.000119 -4.216677 7.522080 -4.398053 139.999924
[Rope4_Seg09]
13 90.185791 0.000060 0.000060 -135.617828 2.228885 0.850567 90.185791
14 90.185791 0.000060 0.000060 -135.617828 2.228885 0.850567 90.185791
[L_rear_hand01]
13 101.696655 -8.392275 -7.654577 -12.874829 -36.868488 107.832764 102.329041
14 101.696655 -8.392275 -7.654577 -12.874829 -36.868488 107.832764 102.329041
[L_rear_hand02]
13 102.726799 -1.568258 5.773216 71.484581 71.816643 158.486160 102.900848
14 102.726799 -1.568258 5.773216 71.484581 71.816628 158.486160 102.900848
[L_rear_hand03]
13 104.552910 9.721220 -10.420293 -177.714203 -24.565960 -106.089035 105.519653
14 104.552910 9.721220 -10.420293 -177.714203 -24.565960 -106.089035 105.519653
